<svg xmlns="http://www.w3.org/2000/svg" version="1.1" xmlns:xlink="http://www.w3.org/1999/xlink" width="50" height="50"><svg width="50" height="50" viewBox="0 0 50 50" fill="none" xmlns="http://www.w3.org/2000/svg">
<rect width="50" height="50" rx="2" fill="#0E0813"></rect>
<path fill-rule="evenodd" clip-rule="evenodd" d="M9 9H15H23C25.1217 9 27.1569 10.0533 28.6572 11.9287C30.1575 13.8041 31 16.3479 31 19C31 21.6521 30.1575 24.1959 28.6572 26.0713C27.1569 27.9467 25.1217 29 23 29L25.6667 33H30.3347L28 28.9971C29.2266 28.0832 30.4023 26.9336 31.4766 24.7109L41.0001 40.9987H35.0001L32.6678 37H28.3333L31 41H25L17 29H15V41H9V29V23V15V9ZM21 23C23.2091 23 25 21.2091 25 19C25 16.7909 23.2091 15 21 15H15V23H21Z" fill="#FAFAFA"></path>
</svg><style>@media (prefers-color-scheme: light) { :root { filter: none; } }
@media (prefers-color-scheme: dark) { :root { filter: none; } }
</style></svg>