<?xml version="1.0" standalone="no"?>
<!DOCTYPE svg PUBLIC "-//W3C//DTD SVG 20010904//EN"
 "http://www.w3.org/TR/2001/REC-SVG-20010904/DTD/svg10.dtd">
<svg version="1.0" xmlns="http://www.w3.org/2000/svg"
 width="700.000000pt" height="700.000000pt" viewBox="0 0 700.000000 700.000000"
 preserveAspectRatio="xMidYMid meet">
<metadata>
Created by potrace 1.14, written by Peter Selinger 2001-2017
</metadata>
<g transform="translate(0.000000,700.000000) scale(0.100000,-0.100000)"
fill="#000000" stroke="none">
<path d="M186 6984 c-34 -11 -64 -31 -102 -68 -93 -94 -84 268 -84 -3416 0
-3684 -9 -3322 84 -3416 94 -93 -268 -84 3416 -84 3684 0 3322 -9 3416 84 93
94 84 -268 84 3416 0 3684 9 3322 -84 3416 -94 93 269 84 -3420 83 -2869 0
-3267 -2 -3310 -15z m3185 -1259 c332 -58 622 -292 801 -648 46 -93 110 -280
132 -387 139 -684 -147 -1388 -669 -1648 -106 -53 -199 -80 -316 -95 l-96 -11
185 -278 185 -278 324 0 c177 0 323 3 323 8 -1 4 -72 129 -160 277 l-159 270
27 24 c222 194 306 295 417 503 l42 78 653 -1117 c359 -615 660 -1128 668
-1141 l14 -22 -422 2 -423 3 -171 293 c-94 162 -172 287 -174 278 -3 -14 -40
-16 -293 -18 l-289 -3 185 -277 185 -278 -420 0 -420 0 -560 840 -560 840
-140 0 -140 0 0 -840 0 -840 -420 0 -420 0 0 2240 0 2240 1014 0 c845 0 1027
-2 1097 -15z"/>
<path d="M2100 4340 l0 -560 443 0 c271 0 466 4 503 11 99 18 213 79 289 156
218 220 218 569 -1 787 -75 76 -190 138 -288 155 -37 7 -232 11 -503 11 l-443
0 0 -560z"/>
</g>
</svg>
