<svg width="40" height="40" viewBox="0 0 40 40" fill="none" xmlns="http://www.w3.org/2000/svg">
<g clip-path="url(#clip0_1398_3059)">
<path fill-rule="evenodd" clip-rule="evenodd" d="M20.0132 4C11.1583 4 4 11.2111 4 20.1322C4 27.2633 8.58659 33.2997 14.9494 35.4362C15.7449 35.5968 16.0363 35.089 16.0363 34.6619C16.0363 34.2879 16.0101 33.006 16.0101 31.6703C11.5556 32.632 10.628 29.7472 10.628 29.7472C9.91212 27.8776 8.85143 27.3971 8.85143 27.3971C7.39348 26.4088 8.95763 26.4088 8.95763 26.4088C10.5749 26.5157 11.4235 28.0648 11.4235 28.0648C12.8549 30.5218 15.1615 29.8276 16.0894 29.4001C16.2218 28.3585 16.6463 27.6373 17.097 27.2368C13.5442 26.8628 9.80625 25.474 9.80625 19.2774C9.80625 17.5146 10.4421 16.0724 11.4497 14.9507C11.2908 14.5502 10.7339 12.8939 11.609 10.6772C11.609 10.6772 12.9611 10.2497 16.0098 12.3331C17.315 11.98 18.6611 11.8003 20.0132 11.7988C21.3653 11.7988 22.7436 11.986 24.0164 12.3331C27.0654 10.2497 28.4175 10.6772 28.4175 10.6772C29.2926 12.8939 28.7354 14.5502 28.5764 14.9507C29.6106 16.0724 30.2202 17.5146 30.2202 19.2774C30.2202 25.474 26.4823 26.8359 22.9029 27.2368C23.4864 27.7442 23.9898 28.7056 23.9898 30.2281C23.9898 32.3914 23.9636 34.1277 23.9636 34.6616C23.9636 35.089 24.2553 35.5968 25.0505 35.4365C31.4133 33.2994 35.9999 27.2633 35.9999 20.1322C36.0262 11.2111 28.8416 4 20.0132 4Z" fill="white"/>
</g>
<defs>
<clipPath id="clip0_1398_3059">
<rect width="32" height="32" fill="white" transform="translate(4 4)"/>
</clipPath>
</defs>
</svg>
