<svg width="40" height="40" viewBox="0 0 40 40" fill="none" xmlns="http://www.w3.org/2000/svg">
<g clip-path="url(#clip0_1398_3058)">
<path d="M33.6313 4H6.3625C5.05625 4 4 5.03125 4 6.30625V33.6875C4 34.9625 5.05625 36 6.3625 36H33.6313C34.9375 36 36 34.9625 36 33.6938V6.30625C36 5.03125 34.9375 4 33.6313 4ZM13.4937 31.2687H8.74375V15.9937H13.4937V31.2687ZM11.1188 13.9125C9.59375 13.9125 8.3625 12.6812 8.3625 11.1625C8.3625 9.64375 9.59375 8.4125 11.1188 8.4125C12.6375 8.4125 13.8687 9.64375 13.8687 11.1625C13.8687 12.675 12.6375 13.9125 11.1188 13.9125ZM31.2687 31.2687H26.525V23.8438C26.525 22.075 26.4937 19.7937 24.0562 19.7937C21.5875 19.7937 21.2125 21.725 21.2125 23.7188V31.2687H16.475V15.9937H21.025V18.0813H21.0875C21.7187 16.8813 23.2688 15.6125 25.575 15.6125C30.3813 15.6125 31.2687 18.775 31.2687 22.8875V31.2687V31.2687Z" fill="white"/>
</g>
<defs>
<clipPath id="clip0_1398_3058">
<rect width="32" height="32" fill="white" transform="translate(4 4)"/>
</clipPath>
</defs>
</svg>
