<svg width="48" height="48" viewBox="0 0 48 48" fill="none" xmlns="http://www.w3.org/2000/svg">
<path fill-rule="evenodd" clip-rule="evenodd" d="M0 0H9H21C24.1826 0 27.2348 1.58035 29.4853 4.3934C31.7357 7.20645 33 11.0218 33 15C33 18.9782 31.7357 22.7936 29.4853 25.6066C27.2348 28.4196 24.1826 30 21 30L25 36H32.0021L28.5 29.9956C30.3398 28.6248 32.1035 26.9004 33.7148 23.5664L48.0001 47.998H39.0001L35.5017 42H29L33 48H24L12 30H9V48H0V30V21V9V0ZM18 21C21.3137 21 24 18.3137 24 15C24 11.6863 21.3137 9 18 9H9V21H18Z" fill="#FAFAFA"/>
</svg>
